<svg xmlns="http://www.w3.org/2000/svg" viewBox="0 0 1800 1040"
     font-family="-apple-system, 'Helvetica Neue', Arial, sans-serif">
  <defs>
    <g id="laptop" stroke="currentColor" stroke-width="1.8" fill="#fff"> <rect x="-14" y="-11" width="28" height="18" rx="2.5"/> <path d="M -19 10 L 19 10 L 15 7 L -15 7 Z" stroke-linejoin="round"/> </g>
    <g id="repo"> <rect x="-15" y="-11" width="30" height="22" rx="4" fill="#fff" stroke="currentColor" stroke-width="1.8" /> <circle cx="-5" cy="5" r="2.2" fill="currentColor" /> <circle cx="5" cy="-5" r="2.2" fill="currentColor" /> <path d="M -5 5 v-5 a 5 5 0 0 1 5 -5 h 1" fill="none" stroke="currentColor" stroke-width="1.8" /> </g>
    <g id="cloud" fill="#fff" stroke="currentColor" stroke-width="1.8"> <path d="M -14 8 a 7 7 0 0 1 1 -14 a 9 9 0 0 1 17 -3 a 7 7 0 0 1 10 6 a 6 6 0 0 1 -2 11 z" /> </g>
    <g id="cube" stroke="currentColor" stroke-width="1.8" stroke-linejoin="round"> <path d="M -13 -6 L 0 -14 L 13 -6 L 13 8 L 0 16 L -13 8 Z" fill="#fff" /> <path d="M -13 -6 L 0 2 L 13 -6 M 0 2 L 0 16" fill="none" /> </g>
    <g id="key" stroke="currentColor" stroke-width="1.9" fill="none" stroke-linecap="round"> <circle cx="-6" cy="0" r="5"/> <path d="M -1 0 H 11 M 7 0 v4 M 11 0 v5"/> </g>
    <g id="lock" stroke="currentColor" stroke-width="1.8" fill="#fff"> <rect x="-7" y="-2" width="14" height="11" rx="2"/> <path d="M -4 -2 v-4 a 4 4 0 0 1 8 0 v4" fill="none"/> </g>
    <g id="reads"> <rect x="-9" y="-9" width="18" height="18" rx="4" fill="#5e5e5a"/> <path d="M -4.5 0 L -1.5 3 L 4.5 -3.5" fill="none" stroke="#fff" stroke-width="2.2" stroke-linecap="round" stroke-linejoin="round"/> </g>
    <g id="blind"> <rect x="-9" y="-9" width="18" height="18" rx="4" fill="#fff" stroke="#c9c9c5" stroke-width="1.4" stroke-dasharray="3.5 2.5"/> <line x1="-4" y1="0" x2="4" y2="0" stroke="#c9c9c5" stroke-width="2"/> </g>
    <g id="cond"> <rect x="-9" y="-9" width="18" height="18" rx="4" fill="#fffdf6" stroke="#c9962e" stroke-width="1.5"/> <circle r="2.6" fill="#c9962e"/> </g>
    <g id="none"> <rect x="-9" y="-9" width="18" height="18" rx="4" fill="#f1f1ee" stroke="#dcdcd8" stroke-width="1.2"/> <line x1="-4.5" y1="4.5" x2="4.5" y2="-4.5" stroke="#b5b5b0" stroke-width="1.8"/> </g>
  </defs>
  <rect width="1800" height="1040" fill="#fff"/>
  <text x="40" y="36" font-size="19" font-weight="700" fill="#1a1a1a">Flywheel next — three security designs: what we keep warm between ticks, under which key, and who can read what</text>
  <text x="40" y="57" font-size="12" fill="#666">the customer is protecting against our staff, a co-tenant, a compromised shared component and the cloud provider · the shared tier is fast because it does not re-clone every tick, and that warm copy is the thing a customer is right to ask about · the three designs differ in one thing — where the key lives and who may unwrap it</text>

  <!-- ============ DESIGN A ============ -->
  <rect x="60" y="80" width="550" height="866" rx="10" fill="#fff" stroke="#2b8a8a" stroke-width="1.6"/>
  <text x="76" y="106" font-size="9" font-weight="700" fill="#8a8a86">DESIGN A</text>
  <text x="76" y="127" font-size="15" font-weight="700" fill="#333">trust the service</text>
  <text x="76" y="145" font-size="9.5" fill="#999">options (a) and (f) · a key per organization over every store the shared tier touches · the recommended default · tiers 1 and 2</text>
  <line x1="76" y1="158" x2="594" y2="158" stroke="#2b8a8a" stroke-width="1" opacity="0.4"/>
  <text x="76" y="180" font-size="10.5" font-weight="700" fill="#1f6e6e">WHAT RUNS WHERE</text>

  <use href="#laptop" x="98" y="200" color="#2b8a8a"/>
  <text x="128" y="198" font-size="10.5" font-weight="700" fill="#333">customer laptop</text>
  <text x="128" y="212" font-size="8.5" fill="#666">the same binary whenever you run it · sign-in is GitHub device flow</text>
  <text x="128" y="224" font-size="8.5" fill="#666">raw capture material and the triage session that reads it stay here (263)</text>

  <use href="#repo" x="98" y="252" color="#2b8a8a"/>
  <text x="128" y="250" font-size="10.5" font-weight="700" fill="#333">customer GitHub</text>
  <text x="128" y="264" font-size="8.5" fill="#666">state and blueprints, created under the customer's own account (219)</text>
  <text x="128" y="276" font-size="8.5" fill="#666">held under GitHub's own key, as every repository on the platform is</text>

  <use href="#cloud" x="98" y="304" color="#2b8a8a"/>
  <text x="128" y="302" font-size="10.5" font-weight="700" fill="#333">the service's shared tier</text>
  <text x="128" y="316" font-size="8.5" fill="#666">the batch ticker over a warm cache · sparse minimised clone: manifest,</text>
  <text x="128" y="328" font-size="8.5" fill="#666">register, leases, the sink's mark, flywheel/ — a read outside it is a refusal (262)</text>

  <use href="#cube" x="98" y="356" color="#2b8a8a"/>
  <text x="128" y="354" font-size="10.5" font-weight="700" fill="#333">pool hosts</text>
  <text x="128" y="368" font-size="8.5" fill="#666">one organization each (241) · the only place code is ever cloned (264)</text>
  <text x="128" y="380" font-size="8.5" fill="#666">triage runs here or on the laptop (263) · retire destroys the host and its disk (240)</text>

  <use href="#cloud" x="98" y="408" color="#c9c9c5"/>
  <text x="128" y="406" font-size="10.5" font-weight="700" fill="#b5b5b0">customer's own cloud account</text>
  <text x="128" y="420" font-size="8.5" fill="#b5b5b0">not used · the customer places no secret at all, and chat runs through the platform's bot</text>

  <line x1="76" y1="452" x2="594" y2="452" stroke="#2b8a8a" stroke-width="1" opacity="0.4"/>
  <text x="76" y="472" font-size="10.5" font-weight="700" fill="#1f6e6e">WHAT WE KEEP WARM, AND UNDER WHICH KEY</text>
  <use href="#key" x="88" y="492" color="#c9962e"/>
  <text x="112" y="495" font-size="9.5" font-weight="700" fill="#8a6a1d">one KMS key per organization, held by the service · its policy names only the role that ticks that organization</text>
  <text x="92" y="516" font-size="9" fill="#666">clone cache · state in full, blueprints blobless and sparse · 10–50 MB</text>
  <text x="376" y="516" font-size="9" font-weight="700" fill="#1f6e6e">sealed under that key (256)</text>
  <text x="92" y="534" font-size="9" fill="#666">queued capture bodies</text>
  <text x="376" y="534" font-size="9" fill="#666">that key · the queue holds an id and a pointer</text>
  <text x="92" y="552" font-size="9" fill="#666">the due index</text>
  <text x="376" y="552" font-size="9" fill="#666">times and ids, no content by construction (245)</text>
  <text x="92" y="570" font-size="9" fill="#666">pool host disk</text>
  <text x="376" y="570" font-size="9" fill="#666">that key · host and disk destroyed at retire (240)</text>
  <text x="92" y="588" font-size="9" fill="#666">the two GitHub repositories</text>
  <text x="376" y="588" font-size="9" font-weight="700" fill="#8a6a1d">GitHub's own key, in plaintext</text>
  <rect x="88" y="598" width="506" height="42" rx="7" fill="#fffdf6" stroke="#c9962e" stroke-width="1.3"/>
  <text x="100" y="614" font-size="9" font-weight="700" fill="#8a6a1d">unwrapped only for the duration of a tick, by a role scoped to that one organization (257, 259)</text>
  <text x="100" y="630" font-size="8.5" fill="#666">idle past a stated time the cache is evicted, so a sleeping tenant has nothing warm to steal; its next tick re-clones (258)</text>

  <line x1="76" y1="652" x2="594" y2="652" stroke="#2b8a8a" stroke-width="1" opacity="0.4"/>
  <text x="76" y="672" font-size="10.5" font-weight="700" fill="#1f6e6e">WHO CAN READ WHAT</text>
  <text x="250" y="692" font-size="8.5" font-weight="700" fill="#8a8a86">plan &amp; state</text>
  <text x="380" y="692" font-size="8.5" font-weight="700" fill="#8a8a86">raw material</text>
  <text x="510" y="692" font-size="8.5" font-weight="700" fill="#8a8a86">code</text>
  <line x1="88" y1="698" x2="594" y2="698" stroke="#c9c9c5" stroke-width="1"/>
  <text x="92" y="718" font-size="9.5" fill="#333">customer</text>
  <use href="#reads" x="272" y="714"/><use href="#reads" x="402" y="714"/><use href="#reads" x="520" y="714"/>
  <text x="92" y="744" font-size="9.5" fill="#333">service staff</text>
  <use href="#reads" x="272" y="740"/><use href="#blind" x="402" y="740"/><use href="#blind" x="520" y="740"/>
  <text x="92" y="770" font-size="9.5" fill="#333">co-tenant</text>
  <use href="#blind" x="272" y="766"/><use href="#blind" x="402" y="766"/><use href="#blind" x="520" y="766"/>
  <text x="92" y="796" font-size="9.5" fill="#333">cloud provider · stolen disk</text>
  <use href="#blind" x="272" y="792"/><use href="#blind" x="402" y="792"/><use href="#blind" x="520" y="792"/>
  <text x="92" y="822" font-size="9.5" fill="#333">a ticker compromised mid-tick</text>
  <use href="#cond" x="272" y="818"/><use href="#blind" x="402" y="818"/><use href="#blind" x="520" y="818"/>
  <text x="92" y="840" font-size="8.5" fill="#a34848">the residual, stated plainly: that organization's plaintext for that tick, and any other ticking in the same process at that moment</text>
  <text x="92" y="852" font-size="8.5" fill="#8a6a1d">a GitHub repository reader reads records unless the organization declares (c) — a GitHub question, not a shared-tier one</text>

  <line x1="76" y1="862" x2="594" y2="862" stroke="#2b8a8a" stroke-width="1" opacity="0.4"/>
  <use href="#lock" x="88" y="880" color="#2b8a8a"/>
  <text x="108" y="884" font-size="10.5" font-weight="700" fill="#1f6e6e">WHAT WE CAN TELL THE CUSTOMER</text>
  <text x="76" y="906" font-size="10" fill="#333">“Everything we hold about you is encrypted at rest under a key that exists for your</text>
  <text x="76" y="920" font-size="10" fill="#333">organization alone, and it is unwrapped only while your plan is being evaluated — a</text>
  <text x="76" y="934" font-size="10" fill="#333">stolen disk or a leaked snapshot of ours is ciphertext.”</text>

  <!-- ============ DESIGN B ============ -->
  <rect x="630" y="80" width="550" height="866" rx="10" fill="#fff" stroke="#2b8a8a" stroke-width="1.6"/>
  <text x="646" y="106" font-size="9" font-weight="700" fill="#8a8a86">DESIGN B</text>
  <text x="646" y="127" font-size="15" font-weight="700" fill="#333">your key, our compute</text>
  <text x="646" y="145" font-size="9.5" fill="#999">design A with the key moved into the customer's account under a revocable grant (b), plus (d) where wanted · tiers 2 and 3</text>
  <line x1="646" y1="158" x2="1164" y2="158" stroke="#2b8a8a" stroke-width="1" opacity="0.4"/>
  <text x="646" y="180" font-size="10.5" font-weight="700" fill="#1f6e6e">WHAT RUNS WHERE</text>

  <use href="#laptop" x="668" y="200" color="#2b8a8a"/>
  <text x="698" y="198" font-size="10.5" font-weight="700" fill="#333">customer laptop</text>
  <text x="698" y="212" font-size="8.5" fill="#666">the same binary · unchanged from A, and unchanged by the upgrade</text>
  <text x="698" y="224" font-size="8.5" fill="#666">raw capture material and triage stay off every shared host (263)</text>

  <use href="#repo" x="668" y="252" color="#2b8a8a"/>
  <text x="698" y="250" font-size="10.5" font-weight="700" fill="#333">customer GitHub</text>
  <text x="698" y="264" font-size="8.5" fill="#666">their two repositories, under GitHub's own key — unchanged from A</text>
  <text x="698" y="276" font-size="8.5" fill="#666">option (c) is available here as a declaration, for a customer whose concern is GitHub</text>

  <use href="#cloud" x="668" y="304" color="#2b8a8a"/>
  <text x="698" y="302" font-size="10.5" font-weight="700" fill="#333">the service's shared tier</text>
  <text x="698" y="316" font-size="8.5" fill="#666">the same warm cache, sealed the same way · the ticker holds a revocable grant,</text>
  <text x="698" y="328" font-size="8.5" fill="#666">not a key · optionally a Nitro enclave releasing the key only to the attested image (d)</text>

  <use href="#cube" x="668" y="356" color="#2b8a8a"/>
  <text x="698" y="354" font-size="10.5" font-weight="700" fill="#333">pool hosts</text>
  <text x="698" y="368" font-size="8.5" fill="#666">one organization each (241) · code here only, destroyed at retire (240, 264)</text>

  <use href="#cloud" x="668" y="408" color="#c9962e"/>
  <text x="698" y="406" font-size="10.5" font-weight="700" fill="#8a6a1d">customer's own cloud account</text>
  <text x="698" y="420" font-size="8.5" fill="#666">the KMS key, and the raw capture store as a bucket they own</text>
  <text x="698" y="432" font-size="8.5" fill="#666">every use of it logged in their account · RevokeGrant ends our access in minutes</text>

  <line x1="646" y1="452" x2="1164" y2="452" stroke="#2b8a8a" stroke-width="1" opacity="0.4"/>
  <text x="646" y="472" font-size="10.5" font-weight="700" fill="#1f6e6e">WHAT WE KEEP WARM, AND UNDER WHICH KEY</text>
  <use href="#key" x="658" y="492" color="#c9962e"/>
  <text x="682" y="495" font-size="9.5" font-weight="700" fill="#8a6a1d">the customer's own KMS key, reached by a grant under an encryption context naming the organization</text>
  <text x="662" y="516" font-size="9" fill="#666">clone cache · the same 10–50 MB, kept the same way</text>
  <text x="946" y="516" font-size="9" font-weight="700" fill="#1f6e6e">sealed under their key</text>
  <text x="662" y="534" font-size="9" fill="#666">queued capture bodies</text>
  <text x="946" y="534" font-size="9" fill="#666">their key · id and pointer only</text>
  <text x="662" y="552" font-size="9" fill="#666">the due index</text>
  <text x="946" y="552" font-size="9" fill="#666">times and ids, no content (245)</text>
  <text x="662" y="570" font-size="9" fill="#666">raw capture store</text>
  <text x="946" y="570" font-size="9" font-weight="700" fill="#8a6a1d">their own bucket</text>
  <text x="662" y="588" font-size="9" fill="#666">the two GitHub repositories</text>
  <text x="946" y="588" font-size="9" fill="#666">GitHub's key · ciphertext only with (c)</text>
  <rect x="658" y="598" width="506" height="42" rx="7" fill="#fdf6f6" stroke="#c05b5b" stroke-width="1.3"/>
  <text x="670" y="614" font-size="9" font-weight="700" fill="#a34848">a revoked or unreachable key fails closed: no tick proceeds on state it cannot open, one attention line names it</text>
  <text x="670" y="630" font-size="8.5" fill="#666">and since when, work already running is not interrupted, and nothing is ever kept unencrypted as a fallback (260)</text>

  <line x1="646" y1="652" x2="1164" y2="652" stroke="#2b8a8a" stroke-width="1" opacity="0.4"/>
  <text x="646" y="672" font-size="10.5" font-weight="700" fill="#1f6e6e">WHO CAN READ WHAT</text>
  <text x="820" y="692" font-size="8.5" font-weight="700" fill="#8a8a86">plan &amp; state</text>
  <text x="950" y="692" font-size="8.5" font-weight="700" fill="#8a8a86">raw material</text>
  <text x="1080" y="692" font-size="8.5" font-weight="700" fill="#8a8a86">code</text>
  <line x1="658" y1="698" x2="1164" y2="698" stroke="#c9c9c5" stroke-width="1"/>
  <text x="662" y="718" font-size="9.5" fill="#333">customer</text>
  <use href="#reads" x="842" y="714"/><use href="#reads" x="972" y="714"/><use href="#reads" x="1090" y="714"/>
  <text x="662" y="744" font-size="9.5" fill="#333">service staff</text>
  <use href="#cond" x="842" y="740"/><use href="#blind" x="972" y="740"/><use href="#blind" x="1090" y="740"/>
  <text x="662" y="770" font-size="9.5" fill="#333">co-tenant</text>
  <use href="#blind" x="842" y="766"/><use href="#blind" x="972" y="766"/><use href="#blind" x="1090" y="766"/>
  <text x="662" y="796" font-size="9.5" fill="#333">cloud provider · stolen disk</text>
  <use href="#blind" x="842" y="792"/><use href="#blind" x="972" y="792"/><use href="#blind" x="1090" y="792"/>
  <text x="662" y="822" font-size="9.5" fill="#333">a ticker compromised mid-tick</text>
  <use href="#cond" x="842" y="818"/><use href="#blind" x="972" y="818"/><use href="#blind" x="1090" y="818"/>
  <text x="662" y="840" font-size="8.5" fill="#8a6a1d">both amber cells go dark with (d): the enclave releases the key only to an attested image, which removes our staff and a compromised</text>
  <text x="662" y="852" font-size="8.5" fill="#8a6a1d">image from the set entirely · without it, staff read while the grant stands and never once it is revoked</text>

  <line x1="646" y1="862" x2="1164" y2="862" stroke="#2b8a8a" stroke-width="1" opacity="0.4"/>
  <use href="#lock" x="658" y="880" color="#2b8a8a"/>
  <text x="678" y="884" font-size="10.5" font-weight="700" fill="#1f6e6e">WHAT WE CAN TELL THE CUSTOMER</text>
  <text x="646" y="906" font-size="10" fill="#333">“Everything above, plus the key is yours — we cannot use it once you revoke it, and</text>
  <text x="646" y="920" font-size="10" fill="#333">revocation stops us reading anything, anywhere, within minutes, with no ticket and</text>
  <text x="646" y="934" font-size="10" fill="#333">no waiting on a deletion job.”</text>

  <!-- ============ DESIGN C ============ -->
  <rect x="1200" y="80" width="550" height="866" rx="10" fill="#fff" stroke="#2b8a8a" stroke-width="1.6"/>
  <text x="1216" y="106" font-size="9" font-weight="700" fill="#8a8a86">DESIGN C</text>
  <text x="1216" y="127" font-size="15" font-weight="700" fill="#333">your account, our control plane</text>
  <text x="1216" y="145" font-size="9.5" fill="#999">option (e) · we provision the binary into their account, hold no content, and keep nothing warm at all · tier 3</text>
  <line x1="1216" y1="158" x2="1734" y2="158" stroke="#2b8a8a" stroke-width="1" opacity="0.4"/>
  <text x="1216" y="180" font-size="10.5" font-weight="700" fill="#1f6e6e">WHAT RUNS WHERE</text>

  <use href="#laptop" x="1238" y="200" color="#2b8a8a"/>
  <text x="1268" y="198" font-size="10.5" font-weight="700" fill="#333">customer laptop</text>
  <text x="1268" y="212" font-size="8.5" fill="#666">the same binary, the same manifest, the same repositories they already have</text>
  <text x="1268" y="224" font-size="8.5" fill="#666">moving here is not a migration — the data keys are re-wrapped and history is left alone</text>

  <use href="#repo" x="1238" y="252" color="#2b8a8a"/>
  <text x="1268" y="250" font-size="10.5" font-weight="700" fill="#333">customer GitHub</text>
  <text x="1268" y="264" font-size="8.5" fill="#666">their App, their installation, their two repositories</text>
  <text x="1268" y="276" font-size="8.5" fill="#666">under GitHub's own key here too · ciphertext only if they also declare (c)</text>

  <use href="#cloud" x="1238" y="304" color="#c9c9c5"/>
  <text x="1268" y="302" font-size="10.5" font-weight="700" fill="#8a8a86">the service's shared tier</text>
  <text x="1268" y="316" font-size="8.5" font-weight="700" fill="#a34848">a control plane only — it keeps nothing warm, because it holds no content</text>
  <text x="1268" y="328" font-size="8.5" fill="#666">the organization's name, its health and its billing counters, and nothing else</text>

  <use href="#cube" x="1238" y="356" color="#c9c9c5"/>
  <text x="1268" y="354" font-size="10.5" font-weight="700" fill="#8a8a86">pool hosts</text>
  <text x="1268" y="368" font-size="8.5" fill="#666">theirs, in their account, at whatever bound they set · no co-tenant exists to isolate from</text>

  <use href="#cloud" x="1238" y="408" color="#2b8a8a"/>
  <text x="1268" y="406" font-size="10.5" font-weight="700" fill="#1f6e6e">customer's own cloud account</text>
  <text x="1268" y="420" font-size="8.5" fill="#666">the whole thing: ticker, cache, pools, key, raw store and bot — provisioned through</text>
  <text x="1268" y="432" font-size="8.5" fill="#666">a role they grant with an external id, and revocable by withdrawing that role</text>

  <line x1="1216" y1="452" x2="1734" y2="452" stroke="#2b8a8a" stroke-width="1" opacity="0.4"/>
  <text x="1216" y="472" font-size="10.5" font-weight="700" fill="#1f6e6e">WHAT WE KEEP WARM, AND UNDER WHICH KEY</text>
  <use href="#key" x="1228" y="492" color="#c9962e"/>
  <text x="1252" y="495" font-size="9.5" font-weight="700" fill="#8a6a1d">their key, in their account, never shared with us — we hold no key, no grant and no copy</text>
  <text x="1232" y="516" font-size="9" fill="#666">clone cache, queue and index</text>
  <text x="1516" y="516" font-size="9" font-weight="700" fill="#1f6e6e">theirs, under their key</text>
  <text x="1232" y="534" font-size="9" fill="#666">raw capture store · pool host disks</text>
  <text x="1516" y="534" font-size="9" fill="#666">theirs, in their account</text>
  <text x="1232" y="552" font-size="9" fill="#666">the two GitHub repositories</text>
  <text x="1516" y="552" font-size="9" fill="#666">GitHub's key · (c) is their choice</text>
  <text x="1232" y="570" font-size="9" fill="#666">what the control plane holds</text>
  <text x="1516" y="570" font-size="9" font-weight="700" fill="#8a6a1d">names, health, counters</text>
  <text x="1232" y="588" font-size="9" fill="#666">what we keep warm</text>
  <text x="1516" y="588" font-size="9" font-weight="700" fill="#1f6e6e">nothing</text>
  <rect x="1228" y="598" width="506" height="42" rx="7" fill="#fdf6f6" stroke="#c05b5b" stroke-width="1.3"/>
  <text x="1240" y="614" font-size="9" font-weight="700" fill="#a34848">what stays ours is the supply chain: our binary still runs there</text>
  <text x="1240" y="630" font-size="8.5" fill="#666">and the price is blind support — we cannot see what broke, and we will say so rather than ask for a copy</text>

  <line x1="1216" y1="652" x2="1734" y2="652" stroke="#2b8a8a" stroke-width="1" opacity="0.4"/>
  <text x="1216" y="672" font-size="10.5" font-weight="700" fill="#1f6e6e">WHO CAN READ WHAT</text>
  <text x="1390" y="692" font-size="8.5" font-weight="700" fill="#8a8a86">plan &amp; state</text>
  <text x="1520" y="692" font-size="8.5" font-weight="700" fill="#8a8a86">raw material</text>
  <text x="1650" y="692" font-size="8.5" font-weight="700" fill="#8a8a86">code</text>
  <line x1="1228" y1="698" x2="1734" y2="698" stroke="#c9c9c5" stroke-width="1"/>
  <text x="1232" y="718" font-size="9.5" fill="#333">customer</text>
  <use href="#reads" x="1412" y="714"/><use href="#reads" x="1542" y="714"/><use href="#reads" x="1660" y="714"/>
  <text x="1232" y="744" font-size="9.5" fill="#333">service staff</text>
  <use href="#blind" x="1412" y="740"/><use href="#blind" x="1542" y="740"/><use href="#blind" x="1660" y="740"/>
  <text x="1232" y="770" font-size="9.5" fill="#333">co-tenant</text>
  <use href="#none" x="1412" y="766"/><use href="#none" x="1542" y="766"/><use href="#none" x="1660" y="766"/>
  <text x="1232" y="796" font-size="9.5" fill="#333">cloud provider · stolen disk</text>
  <use href="#blind" x="1412" y="792"/><use href="#blind" x="1542" y="792"/><use href="#blind" x="1660" y="792"/>
  <text x="1232" y="822" font-size="9.5" fill="#333">a ticker compromised mid-tick</text>
  <use href="#none" x="1412" y="818"/><use href="#none" x="1542" y="818"/><use href="#none" x="1660" y="818"/>
  <text x="1232" y="840" font-size="8.5" fill="#8a8a86">the provider is now their provider and their problem · no co-tenant exists and no shared ticker exists to compromise</text>
  <text x="1232" y="852" font-size="8.5" fill="#8a8a86">what we keep is the bill, not the content</text>

  <line x1="1216" y1="862" x2="1734" y2="862" stroke="#2b8a8a" stroke-width="1" opacity="0.4"/>
  <use href="#lock" x="1228" y="880" color="#2b8a8a"/>
  <text x="1248" y="884" font-size="10.5" font-weight="700" fill="#1f6e6e">WHAT WE CAN TELL THE CUSTOMER</text>
  <text x="1216" y="906" font-size="10" fill="#333">“If you would rather we held nothing at all, we provision the whole thing into your</text>
  <text x="1216" y="920" font-size="10" fill="#333">account and keep only your organization's name, its health and its bill.”</text>

  <!-- LEGEND / FOOTER -->
  <rect x="40" y="950" width="1720" height="76" rx="10" fill="#fafafa"/>
  <use href="#reads" x="72" y="974"/>
  <text x="90" y="978" font-size="10" fill="#333">reads it in the clear</text>
  <use href="#blind" x="248" y="974"/>
  <text x="266" y="978" font-size="10" fill="#333">cannot read it</text>
  <use href="#cond" x="404" y="974"/>
  <text x="422" y="978" font-size="10" fill="#333">conditional — for one organization and one tick, or while a grant stands</text>
  <use href="#none" x="856" y="974"/>
  <text x="874" y="978" font-size="10" fill="#333">no such party exists in this design</text>
  <use href="#key" x="1128" y="974" color="#c9962e"/>
  <text x="1146" y="978" font-size="10" fill="#333">where the key lives — the one thing the three designs differ in</text>
  <text x="60" y="1002" font-size="9" fill="#999">recommended default for the hosted tier is Design A: a key per organization over every warm store, unwrapped only while that organization's plan is being evaluated, plus minimisation and pool and triage isolation · it answers what a customer actually asks — what sits on your disks between ticks and who can read it — without asking them to do anything</text>
  <text x="60" y="1016" font-size="9" fill="#999">Design B is a key-provider swap on top of it, not a re-architecture · envelopes in git (option c) are a declaration a customer turns on when their concern is GitHub rather than us, and never the default (265, 266) · none of this is a migration: every tier seals the same stores the same way and what changes is where the key lives · 256 – 266 · §2 and §4 of proposals/security.md</text>
</svg>
