<svg xmlns="http://www.w3.org/2000/svg" viewBox="0 0 1820 1000" font-family="-apple-system, 'Helvetica Neue', Arial, sans-serif">
  <defs>
    <marker id="mN" viewBox="0 0 10 10" refX="8.5" refY="5" markerWidth="7" markerHeight="7" orient="auto-start-reverse"><path d="M0 0L10 5L0 10z" fill="#8a8a86"/></marker>
    <marker id="mR" viewBox="0 0 10 10" refX="8.5" refY="5" markerWidth="7" markerHeight="7" orient="auto-start-reverse"><path d="M0 0L10 5L0 10z" fill="#c05b5b"/></marker>
    <marker id="mA" viewBox="0 0 10 10" refX="8.5" refY="5" markerWidth="7" markerHeight="7" orient="auto-start-reverse"><path d="M0 0L10 5L0 10z" fill="#c9962e"/></marker>
    <marker id="mD" viewBox="0 0 10 10" refX="8.5" refY="5" markerWidth="7" markerHeight="7" orient="auto-start-reverse"><path d="M0 0L10 5L0 10z" fill="#333"/></marker>
    <g id="gear"> <circle r="9" fill="#fff" stroke="currentColor" stroke-width="2.4" /> <circle r="3" fill="currentColor" /> <g stroke="currentColor" stroke-width="2.4"> <line y1="-9" y2="-13.5" /><line y1="9" y2="13.5" /> <line x1="-9" x2="-13.5" /><line x1="9" x2="13.5" /> <line x1="-6.4" y1="-6.4" x2="-9.5" y2="-9.5" /><line x1="6.4" y1="6.4" x2="9.5" y2="9.5" /> <line x1="-6.4" y1="6.4" x2="-9.5" y2="9.5" /><line x1="6.4" y1="-6.4" x2="9.5" y2="-9.5" /> </g> </g>
    <g id="repo"> <rect x="-26" y="-18" width="52" height="36" rx="7" fill="#fff" stroke="currentColor" stroke-width="2" /> <circle cx="-9" cy="8" r="3.2" fill="currentColor" /> <circle cx="9" cy="-8" r="3.2" fill="currentColor" /> <path d="M -9 8 v-8 a 8 8 0 0 1 8 -8 h 1" fill="none" stroke="currentColor" stroke-width="2" /> </g>
    <g id="person"> <circle cy="-6" r="4" fill="#fff" stroke="currentColor" stroke-width="1.8" /> <path d="M -7 8 a 7 7 0 0 1 14 0" fill="none" stroke="currentColor" stroke-width="1.8" /> </g>
    <g id="browser"> <rect x="-22" y="-14" width="44" height="28" rx="4" fill="#fff" stroke="currentColor" stroke-width="2" /> <line x1="-22" y1="-6" x2="22" y2="-6" stroke="currentColor" stroke-width="2" /> <circle cx="-16" cy="-10" r="1.6" fill="currentColor" /><circle cx="-11" cy="-10" r="1.6" fill="currentColor" /> </g>
    <g id="cyl"> <path d="M -24 -11 L -24 13 A 24 8 0 0 0 24 13 L 24 -11" fill="#f1f1ee" stroke="#8a8a86" stroke-width="1.6" /> <ellipse cx="0" cy="-11" rx="24" ry="8" fill="#e3e3df" stroke="#8a8a86" stroke-width="1.6" /> </g>
    <g id="marker"> <circle r="7" fill="#fff" stroke="currentColor" stroke-width="2.2" /> <circle r="2.6" fill="currentColor" /> </g>
    <g id="row" stroke="currentColor" stroke-width="1.6" fill="none"><rect x="-8" y="-6" width="16" height="12" rx="2" /><line x1="-4" y1="-1" x2="4" y2="-1" /><line x1="-4" y1="3" x2="1" y2="3" /></g>
    <g id="rows" fill="#8a8a86"> <rect x="-16" y="-9" width="32" height="4" rx="1" /><rect x="-16" y="-2" width="32" height="4" rx="1" /><rect x="-16" y="5" width="20" height="4" rx="1" /> </g>
    <g id="gate" stroke="#c05b5b" stroke-width="3" stroke-linecap="round"> <line x1="-8" y1="-11" x2="-8" y2="11" /><line x1="8" y1="-11" x2="8" y2="11" /><line x1="-8" y1="-3" x2="8" y2="-3" /> </g>
    <g id="check" fill="none" stroke="#2e9e5b" stroke-width="2.6" stroke-linecap="round" stroke-linejoin="round"> <path d="M -6 0 L -2 4 L 6 -5" /> </g>
    <g id="bolt"><polygon points="-2.5,-11 5,-11 0.5,-2.5 6,-2.5 -4.5,11 -1,0.5 -6,0.5" fill="currentColor" /></g>
    <g id="clock"> <circle r="9" fill="#fff" stroke="#c9962e" stroke-width="2" /> <path d="M 0 -5 V 0 H 4" fill="none" stroke="#c9962e" stroke-width="2.2" stroke-linecap="round" /> </g>
    <g id="cube" stroke="currentColor" stroke-width="1.8" stroke-linejoin="round"> <path d="M -16 -8 L 0 -17 L 16 -8 L 16 10 L 0 19 L -16 10 Z" fill="#fff" /> <path d="M -16 -8 L 0 1 L 16 -8 M 0 1 L 0 19" fill="none" /> </g>
  </defs>
  <rect width="1820" height="1000" fill="#fff"/>

  <text x="40" y="36" font-size="19" font-weight="700" fill="#1a1a1a">Flywheel — the tracker names every object, but each pass reads its state back from four stores</text>
  <text x="40" y="57" font-size="12" fill="#666">intent ⊃ elaboration ⊃ question · bolt ⊃ unit ⊃ work item · one session per batch · the batch is the card the operator sees</text>

  <!-- ================= STORE 1: OPERATOR SURFACES ================= -->
  <rect x="40" y="78" width="1260" height="96" rx="10" fill="#fbfbfa" stroke="#8a8a86" stroke-width="1.4"/>
  <text x="56" y="98" font-size="11.5" font-weight="700" fill="#5f6b7a">OPERATOR — board Status · the round</text>
  <use href="#person" x="110" y="126" color="#8a8a86"/>
  <text x="110" y="156" font-size="9.5" fill="#666" text-anchor="middle">operator</text>
  <line x1="126" y1="126" x2="186" y2="126" stroke="#c05b5b" stroke-width="2.2" marker-end="url(#mR)"/>
  <use href="#browser" x="218" y="126" color="#8a8a86"/>
  <text x="218" y="156" font-size="9.5" fill="#666" text-anchor="middle">Kanban</text>
  <rect x="262" y="117" width="66" height="18" rx="9" fill="#8a8a86"/>
  <text x="295" y="130" font-size="10" font-family="monospace" fill="#fff" text-anchor="middle">Backlog</text>
  <use href="#gate" transform="translate(600,126) scale(0.7)"/>
  <use href="#check" x="650" y="126"/>
  <text x="625" y="156" font-size="9.5" fill="#666" text-anchor="middle">the word · done</text>
  <rect x="336" y="117" width="54" height="18" rx="9" fill="#c05b5b"/>
  <text x="363" y="130" font-size="10" font-family="monospace" fill="#fff" text-anchor="middle">Ready</text>
  <rect x="398" y="117" width="90" height="18" rx="9" fill="#4a7fb5"/>
  <text x="443" y="130" font-size="10" font-family="monospace" fill="#fff" text-anchor="middle">In Progress</text>
  <rect x="496" y="117" width="50" height="18" rx="9" fill="#2e9e5b"/>
  <text x="521" y="130" font-size="10" font-family="monospace" fill="#fff" text-anchor="middle">Done</text>
  <text x="262" y="152" font-size="8.5" fill="#999">Ready approves · In Progress = consumed</text>
  <use href="#browser" x="760" y="126" color="#8a8a86"/>
  <text x="760" y="156" font-size="9.5" fill="#666" text-anchor="middle">round</text>
  <rect x="800" y="117" width="200" height="18" rx="9" fill="#c05b5b"/>
  <text x="900" y="130" font-size="10" font-family="monospace" fill="#fff" text-anchor="middle">round-29 · plan.html · url.txt</text>
  <text x="800" y="152" font-size="8.5" fill="#999">re-rendered in place · answered by phone</text>

  <!-- ================= STORE 2: TRACKER ================= -->
  <rect x="40" y="188" width="1260" height="326" rx="10" fill="#fbfbfa" stroke="#8a8a86" stroke-width="1.4"/>
  <text x="56" y="208" font-size="11.5" font-weight="700" fill="#5f6b7a">TRACKER — issues · labels · milestones</text>
  <text x="550" y="208" font-size="11.5" font-weight="700" fill="#7b5cb8" text-anchor="end">DESIGN · intent</text>
  <text x="1120" y="208" font-size="11.5" font-weight="700" fill="#4a7fb5" text-anchor="end">CONSTRUCTION · bolt</text>

  <text x="56" y="258" font-size="11.5" font-weight="700" fill="#8a8a86">milestone</text>
  <text x="56" y="272" font-size="8.5" fill="#999">the home loop</text>
  <use href="#marker" x="128" y="254" color="#8a8a86"/>
  <text x="56" y="356" font-size="11.5" font-weight="700" fill="#8a8a86">batch</text>
  <text x="56" y="370" font-size="8.5" fill="#999">the board card</text>
  <use href="#row" x="128" y="352" color="#8a8a86"/>
  <text x="56" y="454" font-size="11.5" font-weight="700" fill="#8a8a86">item</text>
  <text x="56" y="468" font-size="8.5" fill="#999">sub-issue</text>
  <use href="#rows" x="128" y="450"/>

  <!-- design column -->
  <g>
    <rect x="150" y="214" width="400" height="84" rx="8" fill="#fff" stroke="#7b5cb8"/>
    <path d="M 150 238 v-16 a8 8 0 0 1 8 -8 h384 a8 8 0 0 1 8 8 v16 z" fill="#7b5cb8"/>
    <text x="162" y="231" font-size="11" font-weight="700" fill="#fff">INTENT</text>
    <text x="162" y="258" font-size="9.5" font-family="monospace" fill="#555">intent/&lt;slug&gt; · a milestone</text>
    <text x="162" y="274" font-size="9.5" font-family="monospace" fill="#555">questions + writing work · one thread</text>
    <text x="162" y="290" font-size="8.5" fill="#6a4da3">open until the operator closes it</text>
  </g>
  <line x1="350" y1="298" x2="350" y2="309" stroke="#8a8a86" stroke-width="1.4" marker-end="url(#mN)"/>
  <text x="358" y="308" font-size="9" fill="#8a8a86">holds *</text>
  <g>
    <rect x="150" y="312" width="400" height="84" rx="8" fill="#fff" stroke="#7b5cb8"/>
    <path d="M 150 336 v-16 a8 8 0 0 1 8 -8 h384 a8 8 0 0 1 8 8 v16 z" fill="#7b5cb8"/>
    <text x="162" y="329" font-size="11" font-weight="700" fill="#fff">ELABORATION</text>
    <text x="162" y="356" font-size="9.5" font-family="monospace" fill="#555">label elaboration · "round N"</text>
    <text x="162" y="372" font-size="9.5" font-family="monospace" fill="#555">Status Backlog → Ready → In Progress</text>
    <text x="162" y="388" font-size="8.5" fill="#6a4da3">stage:done by the operator → collect</text>
  </g>
  <line x1="350" y1="396" x2="350" y2="407" stroke="#8a8a86" stroke-width="1.4" marker-end="url(#mN)"/>
  <text x="358" y="406" font-size="9" fill="#8a8a86">sub-issues *</text>
  <g>
    <rect x="150" y="410" width="400" height="84" rx="8" fill="#fff" stroke="#7b5cb8"/>
    <path d="M 150 434 v-16 a8 8 0 0 1 8 -8 h384 a8 8 0 0 1 8 8 v16 z" fill="#7b5cb8"/>
    <text x="162" y="427" font-size="11" font-weight="700" fill="#fff">QUESTION</text>
    <text x="162" y="454" font-size="9.5" font-family="monospace" fill="#555">state: queued → ready → in-progress</text>
    <text x="162" y="470" font-size="9.5" font-family="monospace" fill="#555">stage: in-session → collected</text>
    <text x="162" y="486" font-size="8.5" fill="#6a4da3">closed: done · declined · parked</text>
  </g>

  <!-- construction column -->
  <g>
    <rect x="720" y="214" width="400" height="84" rx="8" fill="#fff" stroke="#4a7fb5"/>
    <path d="M 720 238 v-16 a8 8 0 0 1 8 -8 h384 a8 8 0 0 1 8 8 v16 z" fill="#4a7fb5"/>
    <text x="732" y="231" font-size="11" font-weight="700" fill="#fff">BOLT</text>
    <text x="732" y="258" font-size="9.5" font-family="monospace" fill="#555">bolt/&lt;slug&gt; · a milestone + a branch</text>
    <text x="732" y="274" font-size="9.5" font-family="monospace" fill="#555">units built inside · lands to main once</text>
    <text x="732" y="290" font-size="8.5" fill="#3f6d9c">the close releases the landing</text>
  </g>
  <line x1="920" y1="298" x2="920" y2="309" stroke="#8a8a86" stroke-width="1.4" marker-end="url(#mN)"/>
  <text x="928" y="308" font-size="9" fill="#8a8a86">holds *</text>
  <g>
    <rect x="720" y="312" width="400" height="84" rx="8" fill="#fff" stroke="#4a7fb5"/>
    <path d="M 720 336 v-16 a8 8 0 0 1 8 -8 h384 a8 8 0 0 1 8 8 v16 z" fill="#4a7fb5"/>
    <text x="732" y="329" font-size="11" font-weight="700" fill="#fff">UNIT</text>
    <text x="732" y="356" font-size="9.5" font-family="monospace" fill="#555">label plan → unit at expansion</text>
    <text x="732" y="372" font-size="9.5" font-family="monospace" fill="#555">Status Backlog → Ready → In Progress</text>
    <text x="732" y="388" font-size="8.5" fill="#3f6d9c">born a plan card · tasks as sub-issues</text>
  </g>
  <line x1="920" y1="396" x2="920" y2="407" stroke="#8a8a86" stroke-width="1.4" marker-end="url(#mN)"/>
  <text x="928" y="406" font-size="9" fill="#8a8a86">sub-issues *</text>
  <g>
    <rect x="720" y="410" width="400" height="84" rx="8" fill="#fff" stroke="#4a7fb5"/>
    <path d="M 720 434 v-16 a8 8 0 0 1 8 -8 h384 a8 8 0 0 1 8 8 v16 z" fill="#4a7fb5"/>
    <text x="732" y="427" font-size="11" font-weight="700" fill="#fff">WORK ITEM</text>
    <text x="732" y="454" font-size="9.5" font-family="monospace" fill="#555">state: ready → in-progress</text>
    <text x="732" y="470" font-size="9.5" font-family="monospace" fill="#555">stage: planned → built → verified → merged</text>
    <text x="732" y="486" font-size="8.5" fill="#3f6d9c">closed: merged, then done at the landing</text>
  </g>

  <!-- ================= STORE 3: RECORDS ================= -->
  <rect x="40" y="528" width="1260" height="138" rx="10" fill="#fbfbfa" stroke="#8a8a86" stroke-width="1.4"/>
  <text x="56" y="548" font-size="11.5" font-weight="700" fill="#5f6b7a">RECORDS — branches · change directories</text>
  <use href="#repo" x="200" y="600" color="#2b8a8a"/>
  <text x="200" y="632" font-size="9.5" fill="#666" text-anchor="middle">blueprints</text>
  <g>
    <rect x="270" y="568" width="280" height="84" rx="8" fill="#fff" stroke="#2b8a8a"/>
    <path d="M 270 592 v-16 a8 8 0 0 1 8 -8 h264 a8 8 0 0 1 8 8 v16 z" fill="#2b8a8a"/>
    <text x="282" y="585" font-size="11" font-weight="700" fill="#fff">intent-&lt;slug&gt;/ · bolt-&lt;slug&gt;/</text>
    <text x="282" y="612" font-size="9.5" font-family="monospace" fill="#555">sessions/&lt;date&gt;-&lt;type&gt;/ · units/</text>
    <text x="282" y="628" font-size="9.5" font-family="monospace" fill="#555">branch sess/&lt;session&gt; · main</text>
    <text x="282" y="644" font-size="8.5" fill="#1f6e6e">written live · archived at the close</text>
  </g>
  <use href="#repo" x="770" y="600" color="#2b8a8a"/>
  <use href="#cube" x="1180" y="600" color="#2b8a8a"/>
  <text x="1180" y="632" font-size="9.5" fill="#666" text-anchor="middle">specs/</text>
  <text x="770" y="632" font-size="9.5" fill="#666" text-anchor="middle">built repo</text>
  <g>
    <rect x="840" y="568" width="280" height="84" rx="8" fill="#fff" stroke="#2b8a8a"/>
    <path d="M 840 592 v-16 a8 8 0 0 1 8 -8 h264 a8 8 0 0 1 8 8 v16 z" fill="#2b8a8a"/>
    <text x="852" y="585" font-size="11" font-weight="700" fill="#fff">bolt/&lt;slug&gt; branch</text>
    <text x="852" y="612" font-size="9.5" font-family="monospace" fill="#555">build/&lt;slug&gt; worktree per item</text>
    <text x="852" y="628" font-size="9.5" font-family="monospace" fill="#555">merge: change archived · specs/ advance</text>
    <text x="852" y="644" font-size="8.5" fill="#1f6e6e">built · merged · archived read from git</text>
  </g>

  <!-- ================= STORE 4: HOSTS ================= -->
  <rect x="40" y="680" width="1260" height="128" rx="10" fill="#fbfbfa" stroke="#8a8a86" stroke-width="1.4"/>
  <text x="56" y="700" font-size="11.5" font-weight="700" fill="#5f6b7a">HOSTS — herdr panes</text>
  <text x="56" y="744" font-size="11.5" font-weight="700" fill="#8a8a86">session</text>
  <text x="56" y="758" font-size="8.5" fill="#999">one pane per charge</text>
  <use href="#gear" x="200" y="744" color="#7b5cb8"/>
  <text x="200" y="774" font-size="9.5" fill="#666" text-anchor="middle">design session</text>
  <rect x="250" y="735" width="200" height="18" rx="9" fill="#7b5cb8"/>
  <text x="350" y="748" font-size="10" font-family="monospace" fill="#fff" text-anchor="middle">planning-atlas-provider-724d</text>
  <text x="250" y="770" font-size="8.5" fill="#999">sess/* branch · pane gone = spent</text>
  <use href="#gear" x="760" y="744" color="#4a7fb5"/>
  <text x="760" y="774" font-size="9.5" fill="#666" text-anchor="middle">spec</text>
  <use href="#gear" x="820" y="744" color="#4a7fb5"/>
  <text x="820" y="774" font-size="9.5" fill="#666" text-anchor="middle">build</text>
  <use href="#gear" x="880" y="744" color="#4a7fb5"/>
  <text x="880" y="774" font-size="9.5" fill="#666" text-anchor="middle">verify</text>
  <use href="#gear" x="940" y="744" color="#4a7fb5"/>
  <text x="940" y="774" font-size="9.5" fill="#666" text-anchor="middle">review</text>
  <rect x="990" y="735" width="170" height="18" rx="9" fill="#4a7fb5"/>
  <text x="1075" y="748" font-size="10" font-family="monospace" fill="#fff" text-anchor="middle">build-atlas-provider-724d</text>
  <text x="990" y="770" font-size="8.5" fill="#999">closed at merge · reaped on retire</text>
  <use href="#gear" x="1225" y="744" color="#c9962e"/>
  <text x="1225" y="774" font-size="9.5" fill="#666" text-anchor="middle">dispatch</text>
  <text x="1225" y="788" font-size="8.5" fill="#999" text-anchor="middle">poked when material stands</text>
  <use href="#bolt" x="1262" y="744" color="#c9962e"/>

  <!-- ================= THE PASS ================= -->
  <rect x="1340" y="78" width="440" height="830" rx="10" fill="#fbfbfa" stroke="#8a8a86" stroke-width="1.4"/>
  <text x="1356" y="98" font-size="11.5" font-weight="700" fill="#5f6b7a">MACHINERY — the pass</text>
  <line x1="1362" y1="108" x2="1362" y2="770" stroke="#8a8a86" stroke-width="2" opacity="0.45"/>

  <line x1="1302" y1="116" x2="1358" y2="116" stroke="#8a8a86" stroke-width="1.6" stroke-dasharray="2 5" marker-end="url(#mN)"/>
  <line x1="1362" y1="140" x2="1308" y2="140" stroke="#8a8a86" stroke-width="1.6" marker-end="url(#mN)"/>
  <text x="1372" y="113" font-size="9" fill="#5f6b7a">reads batch Status · round feedback</text>
  <text x="1372" y="150" font-size="9" fill="#5f6b7a">writes Status: consume · place</text>

  <line x1="1302" y1="330" x2="1358" y2="330" stroke="#8a8a86" stroke-width="1.6" stroke-dasharray="2 5" marker-end="url(#mN)"/>
  <line x1="1362" y1="354" x2="1308" y2="354" stroke="#8a8a86" stroke-width="1.6" marker-end="url(#mN)"/>
  <text x="1372" y="327" font-size="9" fill="#5f6b7a">reads open + closed:merged items</text>
  <text x="1372" y="364" font-size="9" fill="#5f6b7a">writes state · stage · closed · comments</text>

  <line x1="1302" y1="580" x2="1358" y2="580" stroke="#8a8a86" stroke-width="1.6" stroke-dasharray="2 5" marker-end="url(#mN)"/>
  <line x1="1362" y1="604" x2="1308" y2="604" stroke="#8a8a86" stroke-width="1.6" marker-end="url(#mN)"/>
  <text x="1372" y="577" font-size="9" fill="#5f6b7a">reads branches · worktrees · change dirs</text>
  <text x="1372" y="614" font-size="9" fill="#5f6b7a">writes commits · merges · archives</text>

  <line x1="1302" y1="730" x2="1358" y2="730" stroke="#8a8a86" stroke-width="1.6" stroke-dasharray="2 5" marker-end="url(#mN)"/>
  <line x1="1362" y1="754" x2="1308" y2="754" stroke="#8a8a86" stroke-width="1.6" marker-end="url(#mN)"/>
  <text x="1372" y="727" font-size="9" fill="#5f6b7a">reads pane presence · agent status</text>
  <text x="1372" y="764" font-size="9" fill="#5f6b7a">writes prompts · charges · closes panes</text>

  <line x1="1362" y1="470" x2="1386" y2="470" stroke="#333" stroke-width="2" marker-end="url(#mD)"/>
  <polygon points="1480,400 1570,470 1480,540 1390,470" fill="#fffdf6" stroke="#c9962e" stroke-width="2"/>
  <text x="1480" y="467" font-size="12" font-weight="700" fill="#8a6a1d" text-anchor="middle">PASS</text>
  <text x="1480" y="483" font-size="8.5" fill="#a97e26" text-anchor="middle">derive · diff · write</text>
  <text x="1580" y="466" font-size="8.5" fill="#999">intent loop · bolt loop</text>
  <text x="1580" y="480" font-size="8.5" fill="#999">one process per milestone</text>

  <!-- server -->
  <path d="M 1720 842 C 1720 720, 1600 580, 1540 520" fill="none" stroke="#c9962e" stroke-width="2" stroke-dasharray="4 3" marker-end="url(#mA)"/>
  <text x="1560" y="690" font-size="9" fill="#a97e26">starts the loops</text>
  <use href="#gear" x="1720" y="860" color="#c9962e"/>
  <use href="#clock" transform="translate(1660,860) scale(0.8)"/>
  <text x="1720" y="890" font-size="9.5" fill="#666" text-anchor="middle">flywheel server</text>
  <text x="1720" y="904" font-size="8.5" fill="#999" text-anchor="middle">reconciles every 60 s</text>
  <use href="#cyl" x="1560" y="860"/>
  <text x="1560" y="890" font-size="9.5" fill="#666" text-anchor="middle">memory</text>
  <text x="1560" y="904" font-size="8.5" fill="#999" text-anchor="middle">_plan_charged · lost on restart</text>

  <!-- legend -->
  <rect x="40" y="918" width="1400" height="70" rx="10" fill="#fafafa" stroke="#d5d5d0"/>
  <g font-size="9.5" fill="#555">
    <line x1="60" y1="944" x2="100" y2="944" stroke="#7b5cb8" stroke-width="2.2"/>
    <text x="108" y="948">design side</text>
    <line x1="200" y1="944" x2="240" y2="944" stroke="#4a7fb5" stroke-width="2.2"/>
    <text x="248" y="948">construction side</text>
    <line x1="370" y1="944" x2="410" y2="944" stroke="#2b8a8a" stroke-width="2.2"/>
    <text x="418" y="948">records</text>
    <line x1="490" y1="944" x2="530" y2="944" stroke="#c05b5b" stroke-width="2.2"/>
    <text x="538" y="948">the operator's word</text>
    <line x1="660" y1="944" x2="700" y2="944" stroke="#c9962e" stroke-width="2.2" stroke-dasharray="4 3"/>
    <text x="708" y="948">standing machinery</text>
    <line x1="830" y1="944" x2="870" y2="944" stroke="#2e9e5b" stroke-width="2.2"/>
    <text x="878" y="948">done</text>
    <line x1="930" y1="944" x2="970" y2="944" stroke="#8a8a86" stroke-width="1.6" stroke-dasharray="2 5"/>
    <text x="978" y="948">read every pass</text>
    <line x1="1080" y1="944" x2="1120" y2="944" stroke="#8a8a86" stroke-width="1.6" marker-end="url(#mN)"/>
    <text x="1128" y="948">written by the pass</text>
    <text x="60" y="974" font-size="10.5" fill="#333">one bus, four stores: a pass re-derives each object's state from all of them — no table says which store decides a state</text>
  </g>
</svg>
