<svg xmlns="http://www.w3.org/2000/svg" width="1378" height="785" viewBox="0 0 1378 785" font-family="-apple-system, 'Helvetica Neue', Arial, sans-serif">
<defs>
<marker id="mB" viewBox="0 0 10 10" refX="8.5" refY="5" markerWidth="7" markerHeight="7" orient="auto-start-reverse"><path d="M0 0L10 5L0 10z" fill="#4a7fb5"/></marker>
<marker id="mT" viewBox="0 0 10 10" refX="8.5" refY="5" markerWidth="7" markerHeight="7" orient="auto-start-reverse"><path d="M0 0L10 5L0 10z" fill="#2b8a8a"/></marker>
<marker id="mG" viewBox="0 0 10 10" refX="8.5" refY="5" markerWidth="7" markerHeight="7" orient="auto-start-reverse"><path d="M0 0L10 5L0 10z" fill="#8a8a86"/></marker>
<marker id="mA" viewBox="0 0 10 10" refX="8.5" refY="5" markerWidth="7" markerHeight="7" orient="auto-start-reverse"><path d="M0 0L10 5L0 10z" fill="#c9962e"/></marker>
<marker id="mI" viewBox="0 0 10 10" refX="8.5" refY="5" markerWidth="7" markerHeight="7" orient="auto-start-reverse"><path d="M0 0L10 5L0 10z" fill="#1a1a1a"/></marker>
</defs>
<rect width="1378" height="785" fill="#fff"/>
<text x="40" y="36" font-size="19" font-weight="700" fill="#1a1a1a">host — engine v5, core · object host</text>
<text x="40" y="57" font-size="12" fill="#666">A host that runs the machinery.</text>
<text x="40" y="75" font-size="9.5" font-family="monospace" fill="#999">satisfies 4, 32, 55, 96, 147, 149, 150, 151, 186, 196, 205, 215, 217, 222, 230, 231, 232 · engine/host.yaml · record bound, last_seen, declares, platform, parts</text>
<text x="40" y="107" font-size="11.5" font-weight="700" fill="#8a8a86">enrolment<title>how the host came to exist (230); an existing host — the first, registered by init — starts enrolled; the add-host tool writes a new host&#x27;s record in proposed, after provisioning it with the operator&#x27;s own credentials</title></text>
<line x1="114" y1="103" x2="1067.85" y2="103" stroke="#8a8a86" stroke-width="2" opacity="0.3"/>
<circle cx="52.0" cy="181.0" r="4" fill="#1a1a1a"/>
<line x1="56.0" y1="181.0" x2="69.0" y2="181.0" stroke="#1a1a1a" stroke-width="1.4" marker-end="url(#mI)"/>
<path d="M220.0,167.0 V159.0 H374.8 V167.0" fill="none" stroke="#c9962e" stroke-width="1.3" marker-end="url(#mA)"></path>
<path d="M310.8,167.0 V129.0 H971.9 V167.0" fill="none" stroke="#c9962e" stroke-width="1.3" marker-end="url(#mA)"></path>
<path d="M582.5,167.0 V144.0 H646.5 V167.0" fill="none" stroke="#8a8a86" stroke-width="1.3" marker-end="url(#mG)"></path>
<path d="M690.4,195.0 V244.0 H118.0 V195.0" fill="none" stroke="#8a8a86" stroke-width="1.3" marker-end="url(#mG)"></path>
<path d="M734.3,167.0 V159.0 H798.3 V167.0" fill="none" stroke="#8a8a86" stroke-width="1.3" marker-end="url(#mG)"></path>
<path d="M853.1,219.0 V229.0 H478.7 V207.0" fill="none" stroke="#c9962e" stroke-width="1.3" marker-end="url(#mA)"></path>
<path d="M907.9,167.0 V159.0 H1047.8 V167.0" fill="none" stroke="#c9962e" stroke-width="1.3" marker-end="url(#mA)"></path>
<rect x="70.0" y="167.0" width="96.0" height="28.0" rx="7" fill="#fff" stroke="#8a8a86" stroke-width="1.6"><title>joined; the disk region takes it from here (205)</title></rect>
<text x="118.0" y="189.0" font-size="11" fill="#1a1a1a" text-anchor="middle" font-weight="700">enrolled</text>
<rect x="210.0" y="167.0" width="110.8" height="52.0" rx="7" fill="#fffdf6" stroke="#c9962e" stroke-width="1.6"><title>provisioned, not yet admitted; the decision shows the platform and the parts, and its yes places the parts&#x27; secrets and issues the token (230)</title></rect>
<text x="265.4" y="189.0" font-size="11" fill="#1a1a1a" text-anchor="middle" font-weight="700">proposed</text>
<rect x="230.5" y="191.0" width="69.8" height="14" rx="7" fill="#c9962e"/>
<text x="265.4" y="201.0" font-size="9" font-family="monospace" fill="#fff" text-anchor="middle">host-enrol</text>
<text x="265.4" y="213.0" font-size="8.5" fill="#8a6a1d" text-anchor="middle">answers: yes · drop</text>
<rect x="364.8" y="167.0" width="227.7" height="40.0" rx="7" fill="#fff" stroke="#8a8a86" stroke-width="1.6"><title>the chosen parts&#x27; secrets go to the platform&#x27;s secret store, then a one-time expiring token is issued; both are effects with proofs</title></rect>
<text x="478.7" y="189.0" font-size="11" fill="#1a1a1a" text-anchor="middle" font-weight="700">admitting</text>
<text x="478.7" y="201.0" font-size="8.5" fill="#666" text-anchor="middle">entry ⚙ place_secrets, issue_enrolment_token</text>
<rect x="636.5" y="167.0" width="107.8" height="28.0" rx="7" fill="#fff" stroke="#8a8a86" stroke-width="1.6"><title>the token is out; the host&#x27;s first heartbeat with it is the proof it joined</title></rect>
<text x="690.4" y="189.0" font-size="11" fill="#1a1a1a" text-anchor="middle" font-weight="700">awaiting-join</text>
<rect x="788.3" y="167.0" width="129.5" height="52.0" rx="7" fill="#fffdf6" stroke="#c9962e" stroke-width="1.6"><title>the token expired unused; a decision under attention offers a reissue</title></rect>
<text x="853.1" y="189.0" font-size="11" fill="#1a1a1a" text-anchor="middle" font-weight="700">lapsed</text>
<rect x="798.7" y="191.0" width="108.9" height="14" rx="7" fill="#c9962e"/>
<text x="853.1" y="201.0" font-size="9" font-family="monospace" fill="#fff" text-anchor="middle">host-enrol-lapsed</text>
<text x="853.1" y="213.0" font-size="8.5" fill="#8a6a1d" text-anchor="middle">answers: reissue · drop</text>
<rect x="961.9" y="167.0" width="96.0" height="28.0" rx="7" fill="#fff" stroke="#8a8a86" stroke-width="2"></rect>
<rect x="964.9" y="170.0" width="90.0" height="22.0" rx="5" fill="none" stroke="#8a8a86" stroke-width="1.2"/>
<text x="1009.9" y="189.0" font-size="11" fill="#1a1a1a" text-anchor="middle" font-weight="700">dropped</text>
<rect x="272.4" y="147.5" width="50.1" height="11" fill="#fff" opacity="0.92"/>
<text x="297.4" y="156.0" font-size="8.5" fill="#333" text-anchor="middle">reply yes</text>
<rect x="614.0" y="117.5" width="54.8" height="11" fill="#fff" opacity="0.92"/>
<text x="641.3" y="126.0" font-size="8.5" fill="#333" text-anchor="middle">reply drop</text>
<rect x="519.4" y="132.5" width="190.3" height="11" fill="#fff" opacity="0.92"/>
<text x="614.5" y="141.0" font-size="8.5" fill="#333" text-anchor="middle">host.secrets_placed ∧ host.token_issued</text>
<rect x="351.1" y="244.5" width="106.2" height="11" fill="#fff" opacity="0.92"/>
<text x="404.2" y="253.0" font-size="8.5" fill="#333" text-anchor="middle">host.last_seen exists</text>
<rect x="703.9" y="147.5" width="124.9" height="11" fill="#fff" opacity="0.92"/>
<text x="766.3" y="156.0" font-size="8.5" fill="#333" text-anchor="middle">entered_at older than 24h</text>
<rect x="631.5" y="229.5" width="68.8" height="11" fill="#fff" opacity="0.92"/>
<text x="665.9" y="238.0" font-size="8.5" fill="#333" text-anchor="middle">reply reissue</text>
<rect x="950.5" y="147.5" width="54.8" height="11" fill="#fff" opacity="0.92"/>
<text x="977.9" y="156.0" font-size="8.5" fill="#333" text-anchor="middle">reply drop</text>
<text x="40" y="296" font-size="11.5" font-weight="700" fill="#8a8a86">disk<title>the host&#x27;s root on disk, beside its life; `flywheel host join` writes the record and this region clones and checks before the host takes any lease (205); lease.coverable reads it; every tick re-reads the root, so a repository or checkout that goes missing, moves or is changed by hand is found and offered its repair (222)</title></text>
<line x1="80" y1="292" x2="795.9499999999999" y2="292" stroke="#8a8a86" stroke-width="2" opacity="0.3"/>
<circle cx="52.0" cy="400.0" r="4" fill="#1a1a1a"/>
<line x1="56.0" y1="400.0" x2="69.0" y2="400.0" stroke="#1a1a1a" stroke-width="1.4" marker-end="url(#mI)"/>
<path d="M156.0,386.0 V318.0 H500.0 V386.0" fill="none" stroke="#8a8a86" stroke-width="1.3" marker-end="url(#mG)"></path>
<path d="M118.0,386.0 V333.0 H360.0 V386.0" fill="none" stroke="#8a8a86" stroke-width="1.3" marker-end="url(#mG)"></path>
<path d="M80.0,386.0 V348.0 H220.0 V386.0" fill="none" stroke="#8a8a86" stroke-width="1.3" marker-end="url(#mG)"></path>
<path d="M296.0,386.0 V348.0 H536.5 V386.0" fill="none" stroke="#8a8a86" stroke-width="1.3" marker-end="url(#mG)"></path>
<path d="M277.0,386.0 V363.0 H398.0 V386.0" fill="none" stroke="#8a8a86" stroke-width="1.3" marker-end="url(#mG)"></path>
<path d="M239.0,386.0 V378.0 H258.0 V386.0" fill="none" stroke="#8a8a86" stroke-width="1.3" marker-end="url(#mG)"></path>
<path d="M436.0,386.0 V378.0 H573.0 V386.0" fill="none" stroke="#8a8a86" stroke-width="1.3" marker-end="url(#mG)"></path>
<path d="M609.5,386.0 V363.0 H673.5 V386.0" fill="none" stroke="#c9962e" stroke-width="1.3" marker-end="url(#mA)"></path>
<path d="M554.8,450.0 V460.0 H80.0 V414.0" fill="none" stroke="#c9962e" stroke-width="1.3" marker-end="url(#mA)"></path>
<path d="M711.5,414.0 V475.0 H156.0 V414.0" fill="none" stroke="#8a8a86" stroke-width="1.3" marker-end="url(#mG)"></path>
<path d="M711.5,386.0 V378.0 H749.5 V386.0" fill="none" stroke="#8a8a86" stroke-width="1.3" marker-end="url(#mG)"></path>
<rect x="70.0" y="386.0" width="96.0" height="28.0" rx="7" fill="#fff" stroke="#8a8a86" stroke-width="1.6"><title>the root is read on the first tick; a host already laid out goes straight to ready</title></rect>
<text x="118.0" y="408.0" font-size="11" fill="#1a1a1a" text-anchor="middle" font-weight="700">unchecked</text>
<rect x="210.0" y="386.0" width="96.0" height="28.0" rx="7" fill="#fff" stroke="#8a8a86" stroke-width="1.6"><title>the state, the books and every tracked built repository cloned bare under the root, one shared-line checkout each; a repeat adds only what is missing</title></rect>
<text x="258.0" y="408.0" font-size="11" fill="#1a1a1a" text-anchor="middle" font-weight="700">cloning</text>
<rect x="350.0" y="386.0" width="96.0" height="28.0" rx="7" fill="#fff" stroke="#8a8a86" stroke-width="1.6"><title>the profile&#x27;s layout holds; the host takes leases and makes places (43, 44)</title></rect>
<text x="398.0" y="408.0" font-size="11" fill="#1a1a1a" text-anchor="middle" font-weight="700">ready</text>
<rect x="490.0" y="386.0" width="129.5" height="64.0" rx="7" fill="#fffdf6" stroke="#c9962e" stroke-width="1.6"><title>a hand-made, drifted, moved or missing part of the layout under the root; the host takes nothing, and the decision says the first path that differs, what was expected, and the repair it would run (205, 222)</title></rect>
<text x="554.8" y="408.0" font-size="11" fill="#1a1a1a" text-anchor="middle" font-weight="700">refused</text>
<rect x="514.3" y="410.0" width="81.0" height="14" rx="7" fill="#c9962e"/>
<text x="554.8" y="420.0" font-size="9" font-family="monospace" fill="#fff" text-anchor="middle">host-refused</text>
<text x="554.8" y="432.0" font-size="8.5" fill="#8a6a1d" text-anchor="middle">answers: repair · retry</text>
<text x="554.8" y="444.0" font-size="8.5" fill="#666" text-anchor="middle">entry ⚙ report</text>
<rect x="663.5" y="386.0" width="96.0" height="28.0" rx="7" fill="#fff" stroke="#8a8a86" stroke-width="1.6"><title>the repair the decision showed, and only that; a place&#x27;s worktree needs no response, prepare_place re-makes it from its line (222)</title></rect>
<text x="711.5" y="408.0" font-size="11" fill="#1a1a1a" text-anchor="middle" font-weight="700">repairing</text>
<rect x="263.2" y="306.5" width="129.6" height="11" fill="#fff" opacity="0.92"/>
<text x="328.0" y="315.0" font-size="8.5" fill="#333" text-anchor="middle">host.disk_layout = differs</text>
<rect x="111.1" y="321.5" width="255.8" height="11" fill="#fff" opacity="0.92"/>
<text x="239.0" y="330.0" font-size="8.5" fill="#333" text-anchor="middle">host.repositories_cloned ∧ host.disk_layout = current</text>
<rect x="42.0" y="336.5" width="223.1" height="11" fill="#fff" opacity="0.92"/>
<text x="153.5" y="345.0" font-size="8.5" fill="#333" text-anchor="middle">host.disk_layout = absent ⚙ clone_repositories</text>
<rect x="351.5" y="336.5" width="129.6" height="11" fill="#fff" opacity="0.92"/>
<text x="416.3" y="345.0" font-size="8.5" fill="#333" text-anchor="middle">host.disk_layout = differs</text>
<rect x="209.6" y="351.5" width="255.8" height="11" fill="#fff" opacity="0.92"/>
<text x="337.5" y="360.0" font-size="8.5" fill="#333" text-anchor="middle">host.repositories_cloned ∧ host.disk_layout = current</text>
<rect x="137.0" y="366.5" width="223.1" height="11" fill="#fff" opacity="0.92"/>
<text x="248.5" y="375.0" font-size="8.5" fill="#333" text-anchor="middle">¬host.repositories_cloned ⚙ clone_repositories</text>
<rect x="439.7" y="366.5" width="129.6" height="11" fill="#fff" opacity="0.92"/>
<text x="504.5" y="375.0" font-size="8.5" fill="#333" text-anchor="middle">host.disk_layout = differs</text>
<rect x="609.5" y="351.5" width="64.1" height="11" fill="#fff" opacity="0.92"/>
<text x="641.5" y="360.0" font-size="8.5" fill="#333" text-anchor="middle">reply repair</text>
<rect x="287.7" y="460.5" width="59.4" height="11" fill="#fff" opacity="0.92"/>
<text x="317.4" y="469.0" font-size="8.5" fill="#333" text-anchor="middle">reply retry</text>
<rect x="383.0" y="475.5" width="101.5" height="11" fill="#fff" opacity="0.92"/>
<text x="433.8" y="484.0" font-size="8.5" fill="#333" text-anchor="middle">host.layout_repaired</text>
<rect x="675.1" y="366.5" width="110.9" height="11" fill="#fff" opacity="0.92"/>
<text x="730.5" y="375.0" font-size="8.5" fill="#333" text-anchor="middle">always ⚙ repair_layout</text>
<text x="40" y="527" font-size="11.5" font-weight="700" fill="#8a8a86">life</text>
<line x1="80" y1="523" x2="703.125" y2="523" stroke="#8a8a86" stroke-width="2" opacity="0.3"/>
<circle cx="52.0" cy="616.0" r="4" fill="#1a1a1a"/>
<line x1="56.0" y1="616.0" x2="69.0" y2="616.0" stroke="#1a1a1a" stroke-width="1.4" marker-end="url(#mI)"/>
<path d="M80.0,602.0 V579.0 H118.0 V602.0" fill="none" stroke="#8a8a86" stroke-width="1.3" marker-end="url(#mG)"></path>
<path d="M92.7,602.0 V594.0 H130.7 V602.0" fill="none" stroke="#8a8a86" stroke-width="1.3" marker-end="url(#mG)"></path>
<path d="M105.3,602.0 V564.0 H143.3 V602.0" fill="none" stroke="#8a8a86" stroke-width="1.3" marker-end="url(#mG)"></path>
<path d="M156.0,602.0 V549.0 H220.0 V602.0" fill="none" stroke="#8a8a86" stroke-width="1.3" marker-end="url(#mG)"></path>
<path d="M258.0,630.0 V664.0 H80.0 V630.0" fill="none" stroke="#8a8a86" stroke-width="1.3" marker-end="url(#mG)"></path>
<path d="M258.0,602.0 V564.0 H360.0 V602.0" fill="none" stroke="#8a8a86" stroke-width="1.3" marker-end="url(#mG)"></path>
<path d="M296.0,602.0 V579.0 H538.2 V602.0" fill="none" stroke="#c9962e" stroke-width="1.3" marker-end="url(#mA)"></path>
<path d="M417.1,654.0 V679.0 H118.0 V630.0" fill="none" stroke="#8a8a86" stroke-width="1.3" marker-end="url(#mG)"><title>the host came back; its leases were never expired, its work resumes on it</title></path>
<path d="M474.2,602.0 V594.0 H614.2 V602.0" fill="none" stroke="#c9962e" stroke-width="1.3" marker-end="url(#mA)"></path>
<path d="M576.2,630.0 V694.0 H156.0 V630.0" fill="none" stroke="#8a8a86" stroke-width="1.3" marker-end="url(#mG)"></path>
<rect x="70.0" y="602.0" width="96.0" height="28.0" rx="7" fill="#fff" stroke="#8a8a86" stroke-width="1.6"><title>heartbeat within the stale window; every tick also reconciles the host&#x27;s own disk against the live objects and runs the enumerators whose sources it declares (215, 231)</title></rect>
<text x="118.0" y="624.0" font-size="11" fill="#1a1a1a" text-anchor="middle" font-weight="700">alive</text>
<rect x="210.0" y="602.0" width="96.0" height="28.0" rx="7" fill="#fff" stroke="#8a8a86" stroke-width="1.6"><title>visible as stale on the status view; its objects are untouched (150)</title></rect>
<text x="258.0" y="624.0" font-size="11" fill="#1a1a1a" text-anchor="middle" font-weight="700">stale</text>
<rect x="350.0" y="602.0" width="134.2" height="52.0" rx="7" fill="#fffdf6" stroke="#c9962e" stroke-width="1.6"><title>an attention line offers takeover; the leases expire only by the operator&#x27;s response or the long bound</title></rect>
<text x="417.1" y="624.0" font-size="11" fill="#1a1a1a" text-anchor="middle" font-weight="700">gone</text>
<rect x="385.0" y="626.0" width="64.2" height="14" rx="7" fill="#c9962e"/>
<text x="417.1" y="636.0" font-size="9" font-family="monospace" fill="#fff" text-anchor="middle">host-gone</text>
<text x="417.1" y="648.0" font-size="8.5" fill="#8a6a1d" text-anchor="middle">answers: takeover · wait</text>
<rect x="528.2" y="602.0" width="96.0" height="28.0" rx="7" fill="#fff" stroke="#8a8a86" stroke-width="1.6"></rect>
<text x="576.2" y="624.0" font-size="11" fill="#1a1a1a" text-anchor="middle" font-weight="700">released</text>
<rect x="42.0" y="567.5" width="190.3" height="11" fill="#fff" opacity="0.92"/>
<text x="137.2" y="576.0" font-size="8.5" fill="#333" text-anchor="middle">host.stray_places ⚙ remove_stray_places</text>
<rect x="42.0" y="582.5" width="204.4" height="11" fill="#fff" opacity="0.92"/>
<text x="144.2" y="591.0" font-size="8.5" fill="#333" text-anchor="middle">¬host.layout_current ⚙ remove_stale_layout</text>
<rect x="45.5" y="552.5" width="157.6" height="11" fill="#fff" opacity="0.92"/>
<text x="124.3" y="561.0" font-size="8.5" fill="#333" text-anchor="middle">host.adapters_due ⚙ run_adapters</text>
<rect x="118.5" y="537.5" width="138.9" height="11" fill="#fff" opacity="0.92"/>
<text x="188.0" y="546.0" font-size="8.5" fill="#333" text-anchor="middle">host.last_seen older than 5m</text>
<rect x="92.5" y="664.5" width="152.9" height="11" fill="#fff" opacity="0.92"/>
<text x="169.0" y="673.0" font-size="8.5" fill="#333" text-anchor="middle">¬(host.last_seen older than 5m)</text>
<rect x="237.2" y="552.5" width="143.6" height="11" fill="#fff" opacity="0.92"/>
<text x="309.0" y="561.0" font-size="8.5" fill="#333" text-anchor="middle">host.last_seen older than 30m</text>
<rect x="343.0" y="567.5" width="148.2" height="11" fill="#fff" opacity="0.92"/>
<text x="417.1" y="576.0" font-size="8.5" fill="#333" text-anchor="middle">reply takeover ⚙ expire_leases</text>
<rect x="191.1" y="679.5" width="152.9" height="11" fill="#fff" opacity="0.92"/>
<text x="267.6" y="688.0" font-size="8.5" fill="#333" text-anchor="middle">¬(host.last_seen older than 5m)<title>the host came back; its leases were never expired, its work resumes on it</title></text>
<rect x="395.3" y="582.5" width="297.9" height="11" fill="#fff" opacity="0.92"/>
<text x="544.2" y="591.0" font-size="8.5" fill="#333" text-anchor="middle">reply takeover ∨ host.last_seen older than 24h ⚙ expire_leases</text>
<rect x="289.6" y="694.5" width="152.9" height="11" fill="#fff" opacity="0.92"/>
<text x="366.1" y="703.0" font-size="8.5" fill="#333" text-anchor="middle">¬(host.last_seen older than 5m)</text>
<rect x="40" y="741" width="1298" height="30" rx="8" fill="#fafafa" stroke="#e5e5e5"/>
<rect x="56" y="751" width="10" height="10" rx="2" fill="#fff" stroke="#8a8a86" stroke-width="1.6"/>
<text x="71" y="760" font-size="9" fill="#666">state</text>
<rect x="114.75" y="751" width="10" height="10" rx="2" fill="#fff" stroke="#c9962e" stroke-width="1.6"/>
<text x="129.75" y="760" font-size="9" fill="#666">decision state · amber pill is the kind</text>
<rect x="341.8" y="751" width="10" height="10" rx="2" fill="#fff" stroke="#2b8a8a" stroke-width="1.6"/>
<text x="356.8" y="760" font-size="9" fill="#666">⧉ runs a submachine</text>
<rect x="469.85" y="751" width="10" height="10" rx="2" fill="#fff" stroke="#1a1a1a" stroke-width="1.6"/>
<text x="484.85" y="760" font-size="9" fill="#666">double border: final</text>
<rect x="602.85" y="751" width="10" height="10" rx="2" fill="#fff" stroke="#8a8a86" stroke-width="1.6"/>
<text x="617.85" y="760" font-size="9" fill="#666">arrow above: forward</text>
<rect x="735.85" y="751" width="10" height="10" rx="2" fill="#fff" stroke="#8a8a86" stroke-width="1.6"/>
<text x="750.85" y="760" font-size="9" fill="#666">arrow below: back</text>
<rect x="854.0" y="751" width="10" height="10" rx="2" fill="#fff" stroke="#c9962e" stroke-width="1.6"/>
<text x="869.0" y="760" font-size="9" fill="#666">amber arrow: the operator&#x27;s response</text>
<rect x="1066.2" y="751" width="10" height="10" rx="2" fill="#fff" stroke="#666" stroke-width="1.6"/>
<text x="1081.2" y="760" font-size="9" fill="#666">⚙ effects · ↳ enter commands · +bump · ● initial</text>
</svg>