<svg xmlns="http://www.w3.org/2000/svg" width="1378" height="532" viewBox="0 0 1378 532" font-family="-apple-system, 'Helvetica Neue', Arial, sans-serif">
<defs>
<marker id="mB" viewBox="0 0 10 10" refX="8.5" refY="5" markerWidth="7" markerHeight="7" orient="auto-start-reverse"><path d="M0 0L10 5L0 10z" fill="#4a7fb5"/></marker>
<marker id="mT" viewBox="0 0 10 10" refX="8.5" refY="5" markerWidth="7" markerHeight="7" orient="auto-start-reverse"><path d="M0 0L10 5L0 10z" fill="#2b8a8a"/></marker>
<marker id="mG" viewBox="0 0 10 10" refX="8.5" refY="5" markerWidth="7" markerHeight="7" orient="auto-start-reverse"><path d="M0 0L10 5L0 10z" fill="#8a8a86"/></marker>
<marker id="mA" viewBox="0 0 10 10" refX="8.5" refY="5" markerWidth="7" markerHeight="7" orient="auto-start-reverse"><path d="M0 0L10 5L0 10z" fill="#c9962e"/></marker>
<marker id="mI" viewBox="0 0 10 10" refX="8.5" refY="5" markerWidth="7" markerHeight="7" orient="auto-start-reverse"><path d="M0 0L10 5L0 10z" fill="#1a1a1a"/></marker>
</defs>
<rect width="1378" height="532" fill="#fff"/>
<text x="40" y="36" font-size="19" font-weight="700" fill="#1a1a1a">planning — object v2 · object planning · one per repository · owns proposal</text>
<text x="40" y="57" font-size="12" fill="#666">Planning: one machine per built repository (section 10).</text>
<text x="40" y="75" font-size="9.5" font-family="monospace" fill="#999">satisfies 4, 28, 29, 60, 64, 98, 101, 102, 104, 171, 172, 182, 198, 199, 200, 202 · planning.yaml · record repository, planned_fingerprint, redo_notes</text>
<text x="40" y="107" font-size="11.5" font-weight="700" fill="#8a8a86">run</text>
<line x1="73" y1="103" x2="1235.95" y2="103" stroke="#4a7fb5" stroke-width="2" opacity="0.3"/>
<circle cx="52.0" cy="196.0" r="4" fill="#1a1a1a"/>
<line x1="56.0" y1="196.0" x2="69.0" y2="196.0" stroke="#1a1a1a" stroke-width="1.4" marker-end="url(#mI)"/>
<path d="M118.0,182.0 V159.0 H220.0 V182.0" fill="none" stroke="#4a7fb5" stroke-width="1.3" marker-end="url(#mB)"></path>
<path d="M296.0,182.0 V174.0 H360.0 V182.0" fill="none" stroke="#4a7fb5" stroke-width="1.3" marker-end="url(#mB)"></path>
<path d="M436.0,182.0 V174.0 H902.0 V182.0" fill="none" stroke="#4a7fb5" stroke-width="1.3" marker-end="url(#mB)"></path>
<path d="M512.0,182.0 V129.0 H1140.0 V182.0" fill="none" stroke="#4a7fb5" stroke-width="1.3" marker-end="url(#mB)"></path>
<path d="M588.0,182.0 V144.0 H1178.0 V182.0" fill="none" stroke="#4a7fb5" stroke-width="1.3" marker-end="url(#mB)"></path>
<path d="M664.0,182.0 V159.0 H1216.0 V182.0" fill="none" stroke="#c9962e" stroke-width="1.3" marker-end="url(#mA)"><title>dictation retires the session (4); the run is due again on the next tick</title></path>
<path d="M902.0,222.0 V426.0 H80.0 V210.0" fill="none" stroke="#8a8a86" stroke-width="1.3" marker-end="url(#mG)"></path>
<path d="M1178.0,222.0 V441.0 H156.0 V210.0" fill="none" stroke="#8a8a86" stroke-width="1.3" marker-end="url(#mG)"><title>the fingerprint still differs, so planning is due again on the next tick; a repeated failure is visible in the run record, never filed as work</title></path>
<rect x="70.0" y="182.0" width="96.0" height="28.0" rx="7" fill="#fff" stroke="#4a7fb5" stroke-width="1.6"></rect>
<text x="118.0" y="204.0" font-size="11" fill="#1a1a1a" text-anchor="middle" font-weight="700">current</text>
<rect x="210.0" y="182.0" width="96.0" height="28.0" rx="7" fill="#fff" stroke="#4a7fb5" stroke-width="1.6"></rect>
<text x="258.0" y="204.0" font-size="11" fill="#1a1a1a" text-anchor="middle" font-weight="700">due</text>
<rect x="350.0" y="182.0" width="324.0" height="234.0" rx="7" fill="#fafafa" stroke="#4a7fb5" stroke-width="1.6"><title>one session reads the backlog, the as-built and the open bolts and delivers one proposal, the units in it each with a target bolt (172), or a chore on the shared line when no bolt is open (60, 182); a unit answering a verdict a challenge staled cites the signal (101)</title></rect>
<text x="512.0" y="204.0" font-size="11" fill="#1a1a1a" text-anchor="middle" font-weight="700">running</text>
<line x1="360.0" y1="214.0" x2="664.0" y2="214.0" stroke="#e5e5e5"/>
<text x="360" y="229" font-size="9.5" font-weight="700" fill="#999">place</text>
<circle cx="372.0" cy="262.0" r="4" fill="#1a1a1a"/>
<line x1="376.0" y1="262.0" x2="389.0" y2="262.0" stroke="#1a1a1a" stroke-width="1.4" marker-end="url(#mI)"/>
<rect x="390.0" y="236.0" width="264.0" height="52.0" rx="7" fill="#fff" stroke="#2b8a8a" stroke-width="1.6"></rect>
<text x="522.0" y="258.0" font-size="11" fill="#1a1a1a" text-anchor="middle" font-weight="700">place</text>
<text x="522.0" y="270.0" font-size="9.5" fill="#2b8a8a" text-anchor="middle" font-weight="700">⧉ place</text>
<text x="522.0" y="282.0" font-size="8" fill="#999" text-anchor="middle">line=built-shared-line · inputs=work-order · keep=False</text>
<line x1="360.0" y1="306.0" x2="664.0" y2="306.0" stroke="#e5e5e5"/>
<text x="360" y="321" font-size="9.5" font-weight="700" fill="#999">session</text>
<circle cx="372.0" cy="360.0" r="4" fill="#1a1a1a"/>
<line x1="376.0" y1="360.0" x2="389.0" y2="360.0" stroke="#1a1a1a" stroke-width="1.4" marker-end="url(#mI)"/>
<rect x="390.0" y="328.0" width="264.0" height="64.0" rx="7" fill="#fff" stroke="#2b8a8a" stroke-width="1.6"></rect>
<text x="522.0" y="350.0" font-size="11" fill="#1a1a1a" text-anchor="middle" font-weight="700">session</text>
<text x="522.0" y="362.0" font-size="9.5" fill="#2b8a8a" text-anchor="middle" font-weight="700">⧉ session</text>
<text x="522.0" y="374.0" font-size="8" fill="#999" text-anchor="middle">agent=planner · place=own-place · work_order=rendered ·</text>
<text x="522.0" y="386.0" font-size="8" fill="#999" text-anchor="middle">keep_alive=False</text>
<rect x="718.0" y="182.0" width="368.0" height="40.0" rx="7" fill="#fff" stroke="#4a7fb5" stroke-width="1.6"><title>verdicts to the ledger, the proposal and its units to the plan, the fingerprint recorded, all in one write</title></rect>
<text x="902.0" y="204.0" font-size="11" fill="#1a1a1a" text-anchor="middle" font-weight="700">applying</text>
<text x="902.0" y="216.0" font-size="8.5" fill="#666" text-anchor="middle">entry ⚙ record_verdict, propose_units, record_proposal, record_fingerprint</text>
<rect x="1130.0" y="182.0" width="96.0" height="40.0" rx="7" fill="#fff" stroke="#4a7fb5" stroke-width="1.6"></rect>
<text x="1178.0" y="204.0" font-size="11" fill="#1a1a1a" text-anchor="middle" font-weight="700">failed</text>
<text x="1178.0" y="216.0" font-size="8.5" fill="#666" text-anchor="middle">entry ⚙ report</text>
<rect x="42.0" y="147.5" width="358.6" height="11" fill="#fff" opacity="0.92"/>
<text x="221.3" y="156.0" font-size="8.5" fill="#333" text-anchor="middle">planning.fingerprint ≠ planning.planned_fingerprint ∨ planning.redo_pending</text>
<rect x="310.0" y="162.5" width="36.0" height="11" fill="#fff" opacity="0.92"/>
<text x="328.0" y="171.0" font-size="8.5" fill="#333" text-anchor="middle">always</text>
<rect x="585.5" y="162.5" width="167.0" height="11" fill="#fff" opacity="0.92"/>
<text x="669.0" y="171.0" font-size="8.5" fill="#333" text-anchor="middle">final exited ∧ session.exit = done</text>
<rect x="709.8" y="117.5" width="232.4" height="11" fill="#fff" opacity="0.92"/>
<text x="826.0" y="126.0" font-size="8.5" fill="#333" text-anchor="middle">final exited ∧ session.exit ∈ {stalled, invalid}</text>
<rect x="855.6" y="132.5" width="54.8" height="11" fill="#fff" opacity="0.92"/>
<text x="883.0" y="141.0" font-size="8.5" fill="#333" text-anchor="middle">final lost</text>
<rect x="833.1" y="147.5" width="213.7" height="11" fill="#fff" opacity="0.92"/>
<text x="940.0" y="156.0" font-size="8.5" fill="#333" text-anchor="middle">reply retire ↳ session→ended, place→removing<title>dictation retires the session (4); the run is due again on the next tick</title></text>
<rect x="473.0" y="426.5" width="36.0" height="11" fill="#fff" opacity="0.92"/>
<text x="491.0" y="435.0" font-size="8.5" fill="#333" text-anchor="middle">always</text>
<rect x="649.0" y="441.5" width="36.0" height="11" fill="#fff" opacity="0.92"/>
<text x="667.0" y="450.0" font-size="8.5" fill="#333" text-anchor="middle">always<title>the fingerprint still differs, so planning is due again on the next tick; a repeated failure is visible in the run record, never filed as work</title></text>
<rect x="40" y="488" width="1298" height="30" rx="8" fill="#fafafa" stroke="#e5e5e5"/>
<rect x="56" y="498" width="10" height="10" rx="2" fill="#fff" stroke="#4a7fb5" stroke-width="1.6"/>
<text x="71" y="507" font-size="9" fill="#666">state</text>
<rect x="114.75" y="498" width="10" height="10" rx="2" fill="#fff" stroke="#c9962e" stroke-width="1.6"/>
<text x="129.75" y="507" font-size="9" fill="#666">decision state · amber pill is the kind</text>
<rect x="341.8" y="498" width="10" height="10" rx="2" fill="#fff" stroke="#2b8a8a" stroke-width="1.6"/>
<text x="356.8" y="507" font-size="9" fill="#666">⧉ runs a submachine</text>
<rect x="469.85" y="498" width="10" height="10" rx="2" fill="#fff" stroke="#1a1a1a" stroke-width="1.6"/>
<text x="484.85" y="507" font-size="9" fill="#666">double border: final</text>
<rect x="602.85" y="498" width="10" height="10" rx="2" fill="#fff" stroke="#4a7fb5" stroke-width="1.6"/>
<text x="617.85" y="507" font-size="9" fill="#666">arrow above: forward</text>
<rect x="735.85" y="498" width="10" height="10" rx="2" fill="#fff" stroke="#8a8a86" stroke-width="1.6"/>
<text x="750.85" y="507" font-size="9" fill="#666">arrow below: back</text>
<rect x="854.0" y="498" width="10" height="10" rx="2" fill="#fff" stroke="#c9962e" stroke-width="1.6"/>
<text x="869.0" y="507" font-size="9" fill="#666">amber arrow: the operator&#x27;s response</text>
<rect x="1066.2" y="498" width="10" height="10" rx="2" fill="#fff" stroke="#666" stroke-width="1.6"/>
<text x="1081.2" y="507" font-size="9" fill="#666">⚙ effects · ↳ enter commands · +bump · ● initial</text>
</svg>